# xmcd
#
# Track frame offsets: 
#        150
#        14317
#        28624
#        45179
#        59054
#        72058
#        88330
#        100530
#        118297
#        128225
#        142293
#
# Disc length: 2047 seconds
#
# Revision: 0
# Processed by: cddbd v1.5.1PL0 Copyright (c) Steve Scherf et al.
# Submitted via: ExactAudioCopy v0.90b4
#
DISCID=9b07fd0b
DTITLE=D.B. Harris - Contagious Heartache
DYEAR=2005
DGENRE=Country
TTITLE0=Girls Gone Wild!
TTITLE1=Back To My Guitar
TTITLE2=All By My Lonesome
TTITLE3=Separation Time
TTITLE4=One More Time
TTITLE5=Contagious Heartache
TTITLE6=Evelyn
TTITLE7=Love Don't Run
TTITLE8=Men Of Action Theme Song
TTITLE9=She's A Dreamer
TTITLE10=Torture
EXTD=
EXTT0=
EXTT1=
EXTT2=
EXTT3=
EXTT4=
EXTT5=
EXTT6=
EXTT7=
EXTT8=
EXTT9=
EXTT10=
PLAYORDER=
